<svg width="200" height="400" viewBox="0 0 200 400" fill="none" xmlns="http://www.w3.org/2000/svg">
<path d="M66.1023 99.5V90.7727H69.5455C70.2074 90.7727 70.7713 90.8991 71.2372 91.152C71.7031 91.402 72.0582 91.75 72.3026 92.196C72.5497 92.6392 72.6733 93.1506 72.6733 93.7301C72.6733 94.3097 72.5483 94.821 72.2983 95.2642C72.0483 95.7074 71.6861 96.0526 71.2116 96.2997C70.7401 96.5469 70.169 96.6705 69.4986 96.6705H67.304V95.1918H69.2003C69.5554 95.1918 69.848 95.1307 70.0781 95.0085C70.3111 94.8835 70.4844 94.7116 70.598 94.4929C70.7145 94.2713 70.7727 94.017 70.7727 93.7301C70.7727 93.4403 70.7145 93.1875 70.598 92.9716C70.4844 92.7528 70.3111 92.5838 70.0781 92.4645C69.8452 92.3423 69.5497 92.2812 69.1918 92.2812H67.9474V99.5H66.1023ZM75.5284 99.6236C75.1108 99.6236 74.7386 99.5511 74.4119 99.4062C74.0852 99.2585 73.8267 99.0412 73.6364 98.7543C73.4489 98.4645 73.3551 98.1037 73.3551 97.6719C73.3551 97.3082 73.4219 97.0028 73.5554 96.7557C73.6889 96.5085 73.8707 96.3097 74.1009 96.1591C74.331 96.0085 74.5923 95.8949 74.8849 95.8182C75.1804 95.7415 75.4901 95.6875 75.8139 95.6562C76.1946 95.6165 76.5014 95.5795 76.7344 95.5455C76.9673 95.5085 77.1364 95.4545 77.2415 95.3835C77.3466 95.3125 77.3991 95.2074 77.3991 95.0682V95.0426C77.3991 94.7727 77.3139 94.5639 77.1435 94.4162C76.9759 94.2685 76.7372 94.1946 76.4276 94.1946C76.1009 94.1946 75.8409 94.267 75.6477 94.4119C75.4545 94.554 75.3267 94.733 75.2642 94.9489L73.5852 94.8125C73.6705 94.4148 73.8381 94.071 74.0881 93.7812C74.3381 93.4886 74.6605 93.2642 75.0554 93.108C75.4531 92.9489 75.9134 92.8693 76.4361 92.8693C76.7997 92.8693 77.1477 92.9119 77.4801 92.9972C77.8153 93.0824 78.1122 93.2145 78.3707 93.3935C78.6321 93.5724 78.8381 93.8026 78.9886 94.0838C79.1392 94.3622 79.2145 94.696 79.2145 95.0852V99.5H77.4929V98.5923H77.4418C77.3366 98.7969 77.196 98.9773 77.0199 99.1335C76.8438 99.2869 76.6321 99.4077 76.3849 99.4957C76.1378 99.581 75.8523 99.6236 75.5284 99.6236ZM76.0483 98.3707C76.3153 98.3707 76.5511 98.3182 76.7557 98.2131C76.9602 98.1051 77.1207 97.9602 77.2372 97.7784C77.3537 97.5966 77.4119 97.3906 77.4119 97.1605V96.4659C77.3551 96.5028 77.277 96.5369 77.1776 96.5682C77.081 96.5966 76.9716 96.6236 76.8494 96.6491C76.7273 96.6719 76.6051 96.6932 76.483 96.7131C76.3608 96.7301 76.25 96.7457 76.1506 96.7599C75.9375 96.7912 75.7514 96.8409 75.5923 96.9091C75.4332 96.9773 75.3097 97.0696 75.2216 97.1861C75.1335 97.2997 75.0895 97.4418 75.0895 97.6122C75.0895 97.8594 75.179 98.0483 75.358 98.179C75.5398 98.3068 75.7699 98.3707 76.0483 98.3707ZM84.8203 96.7131V92.9545H86.6357V99.5H84.8928V98.3111H84.8246C84.6768 98.6946 84.4311 99.0028 84.0874 99.2358C83.7464 99.4687 83.3303 99.5852 82.8388 99.5852C82.4013 99.5852 82.0163 99.4858 81.6839 99.2869C81.3516 99.0881 81.0916 98.8054 80.9041 98.4389C80.7195 98.0724 80.6257 97.6335 80.6229 97.1222V92.9545H82.4382V96.7983C82.4411 97.1847 82.5447 97.4901 82.7493 97.7145C82.9538 97.9389 83.228 98.0511 83.5717 98.0511C83.7905 98.0511 83.995 98.0014 84.1854 97.902C84.3757 97.7997 84.5291 97.6491 84.6456 97.4503C84.7649 97.2514 84.8232 97.0057 84.8203 96.7131ZM93.5337 94.821L91.8718 94.9233C91.8434 94.7812 91.7823 94.6534 91.6886 94.5398C91.5948 94.4233 91.4712 94.331 91.3178 94.2628C91.1673 94.1918 90.9869 94.1562 90.7766 94.1562C90.4954 94.1562 90.2582 94.2159 90.065 94.3352C89.8718 94.4517 89.7752 94.608 89.7752 94.804C89.7752 94.9602 89.8377 95.0923 89.9627 95.2003C90.0877 95.3082 90.3022 95.3949 90.6062 95.4602L91.7908 95.6989C92.4272 95.8295 92.9016 96.0398 93.2141 96.3295C93.5266 96.6193 93.6829 97 93.6829 97.4716C93.6829 97.9006 93.5565 98.277 93.3036 98.6009C93.0536 98.9247 92.7099 99.1776 92.2724 99.3594C91.8377 99.5384 91.3363 99.6278 90.7681 99.6278C89.9016 99.6278 89.2113 99.4474 88.6971 99.0866C88.1857 98.723 87.886 98.2287 87.7979 97.6037L89.5835 97.5099C89.6374 97.7741 89.7681 97.9759 89.9755 98.1151C90.1829 98.2514 90.4485 98.3196 90.7724 98.3196C91.0906 98.3196 91.3462 98.2585 91.5394 98.1364C91.7354 98.0114 91.8349 97.8509 91.8377 97.6548C91.8349 97.4901 91.7653 97.3551 91.6289 97.25C91.4925 97.142 91.2823 97.0597 90.9982 97.0028L89.8647 96.777C89.2255 96.6491 88.7496 96.4276 88.4371 96.1122C88.1275 95.7969 87.9727 95.3949 87.9727 94.9062C87.9727 94.4858 88.0863 94.1236 88.3136 93.8196C88.5437 93.5156 88.8661 93.2812 89.2809 93.1165C89.6985 92.9517 90.1871 92.8693 90.7468 92.8693C91.5735 92.8693 92.2241 93.044 92.6985 93.3935C93.1758 93.7429 93.4542 94.2187 93.5337 94.821ZM97.8089 99.6278C97.1357 99.6278 96.5561 99.4915 96.0703 99.2188C95.5874 98.9432 95.2152 98.554 94.9538 98.0511C94.6925 97.5455 94.5618 96.9474 94.5618 96.2571C94.5618 95.5838 94.6925 94.9929 94.9538 94.4844C95.2152 93.9759 95.5831 93.5795 96.0575 93.2955C96.5348 93.0114 97.0945 92.8693 97.7365 92.8693C98.1683 92.8693 98.5703 92.9389 98.9425 93.0781C99.3175 93.2145 99.6442 93.4205 99.9226 93.696C100.204 93.9716 100.423 94.3182 100.579 94.7358C100.735 95.1506 100.813 95.6364 100.813 96.1932V96.6918H95.2862V95.5668H99.1044C99.1044 95.3054 99.0476 95.0739 98.9339 94.8722C98.8203 94.6705 98.6626 94.5128 98.4609 94.3991C98.2621 94.2827 98.0305 94.2244 97.7663 94.2244C97.4908 94.2244 97.2464 94.2884 97.0334 94.4162C96.8232 94.5412 96.6584 94.7102 96.5391 94.9233C96.4197 95.1335 96.3587 95.3679 96.3558 95.6264V96.696C96.3558 97.0199 96.4155 97.2997 96.5348 97.5355C96.657 97.7713 96.8288 97.9531 97.0504 98.081C97.272 98.2088 97.5348 98.2727 97.8388 98.2727C98.0405 98.2727 98.2251 98.2443 98.3928 98.1875C98.5604 98.1307 98.7038 98.0455 98.8232 97.9318C98.9425 97.8182 99.0334 97.679 99.0959 97.5142L100.775 97.625C100.69 98.0284 100.515 98.3807 100.251 98.6818C99.9893 98.9801 99.6513 99.2131 99.2365 99.3807C98.8246 99.5455 98.3487 99.6278 97.8089 99.6278ZM105.176 96.0014C105.176 94.9446 105.316 93.9716 105.598 93.0824C105.882 92.1932 106.315 91.3693 106.897 90.6108H108.632C108.41 90.892 108.204 91.2358 108.014 91.642C107.824 92.0455 107.657 92.4886 107.515 92.9716C107.373 93.4545 107.262 93.9545 107.183 94.4716C107.103 94.9858 107.064 95.4957 107.064 96.0014C107.064 96.6747 107.132 97.3551 107.268 98.0426C107.407 98.7273 107.595 99.3636 107.831 99.9517C108.069 100.54 108.336 101.021 108.632 101.396H106.897C106.315 100.638 105.882 99.8139 105.598 98.9247C105.316 98.0355 105.176 97.0611 105.176 96.0014ZM109.719 99.5V90.7727H115.6V92.294H111.565V94.3736H115.298V95.8949H111.565V97.9787H115.617V99.5H109.719ZM122.479 94.821L120.817 94.9233C120.789 94.7812 120.728 94.6534 120.634 94.5398C120.54 94.4233 120.417 94.331 120.263 94.2628C120.113 94.1918 119.932 94.1562 119.722 94.1562C119.441 94.1562 119.203 94.2159 119.01 94.3352C118.817 94.4517 118.721 94.608 118.721 94.804C118.721 94.9602 118.783 95.0923 118.908 95.2003C119.033 95.3082 119.248 95.3949 119.551 95.4602L120.736 95.6989C121.373 95.8295 121.847 96.0398 122.159 96.3295C122.472 96.6193 122.628 97 122.628 97.4716C122.628 97.9006 122.502 98.277 122.249 98.6009C121.999 98.9247 121.655 99.1776 121.218 99.3594C120.783 99.5384 120.282 99.6278 119.713 99.6278C118.847 99.6278 118.157 99.4474 117.642 99.0866C117.131 98.723 116.831 98.2287 116.743 97.6037L118.529 97.5099C118.583 97.7741 118.713 97.9759 118.921 98.1151C119.128 98.2514 119.394 98.3196 119.718 98.3196C120.036 98.3196 120.292 98.2585 120.485 98.1364C120.681 98.0114 120.78 97.8509 120.783 97.6548C120.78 97.4901 120.711 97.3551 120.574 97.25C120.438 97.142 120.228 97.0597 119.944 97.0028L118.81 96.777C118.171 96.6491 117.695 96.4276 117.382 96.1122C117.073 95.7969 116.918 95.3949 116.918 94.9062C116.918 94.4858 117.032 94.1236 117.259 93.8196C117.489 93.5156 117.811 93.2812 118.226 93.1165C118.644 92.9517 119.132 92.8693 119.692 92.8693C120.519 92.8693 121.169 93.044 121.644 93.3935C122.121 93.7429 122.4 94.2187 122.479 94.821ZM126.729 99.6278C126.058 99.6278 125.482 99.4858 124.999 99.2017C124.518 98.9148 124.149 98.517 123.891 98.0085C123.635 97.5 123.507 96.9148 123.507 96.2528C123.507 95.5824 123.636 94.9943 123.895 94.4886C124.156 93.9801 124.527 93.5838 125.007 93.2997C125.487 93.0128 126.058 92.8693 126.72 92.8693C127.291 92.8693 127.791 92.973 128.22 93.1804C128.649 93.3878 128.989 93.679 129.239 94.054C129.489 94.429 129.626 94.8693 129.652 95.375H127.939C127.891 95.0483 127.763 94.7855 127.555 94.5866C127.351 94.3849 127.082 94.2841 126.75 94.2841C126.469 94.2841 126.223 94.3608 126.013 94.5142C125.805 94.6648 125.643 94.8849 125.527 95.1747C125.411 95.4645 125.352 95.8153 125.352 96.2273C125.352 96.6449 125.409 97 125.523 97.2926C125.639 97.5852 125.803 97.8082 126.013 97.9616C126.223 98.1151 126.469 98.1918 126.75 98.1918C126.957 98.1918 127.143 98.1491 127.308 98.0639C127.476 97.9787 127.614 97.8551 127.722 97.6932C127.832 97.5284 127.905 97.331 127.939 97.1009H129.652C129.624 97.6009 129.487 98.0412 129.243 98.4219C129.001 98.7997 128.668 99.0952 128.241 99.3082C127.815 99.5213 127.311 99.6278 126.729 99.6278ZM133.874 96.0014C133.874 97.0611 133.732 98.0355 133.448 98.9247C133.167 99.8139 132.735 100.638 132.152 101.396H130.418C130.64 101.115 130.846 100.771 131.036 100.365C131.226 99.9588 131.392 99.5156 131.534 99.0355C131.676 98.5526 131.787 98.0526 131.867 97.5355C131.946 97.0185 131.986 96.5071 131.986 96.0014C131.986 95.3281 131.917 94.6491 131.777 93.9645C131.641 93.277 131.453 92.6406 131.215 92.0554C130.979 91.4673 130.713 90.9858 130.418 90.6108H132.152C132.735 91.3693 133.167 92.1932 133.448 93.0824C133.732 93.9716 133.874 94.9446 133.874 96.0014Z" fill="white"/>
<g filter="url(#filter0_d_1_2)">
<rect x="10" y="112.5" width="32" height="32" rx="4" fill="#D9D9D9"/>
</g>
<path d="M25.7555 132.977L21.46 128.682L25.7555 124.386L26.7441 125.366L24.149 127.962H30.2299V129.402H24.149L26.7441 131.993L25.7555 132.977Z" fill="black"/>
<g filter="url(#filter1_d_1_2)">
<rect x="52" y="112.5" width="32" height="32" rx="4" fill="#D9D9D9"/>
</g>
<path d="M65.7745 132.5H63.7972L66.81 123.773H69.1879L72.1964 132.5H70.2191L68.033 125.767H67.9648L65.7745 132.5ZM65.6509 129.07H70.3214V130.51H65.6509V129.07Z" fill="black"/>
<path d="M136.126 124.273H138.401L140.805 130.136H140.907L143.31 124.273H145.586V133H143.796V127.32H143.724L141.465 132.957H140.246L137.988 127.298H137.915V133H136.126V124.273ZM150.029 133.128C149.368 133.128 148.795 132.987 148.312 132.706C147.832 132.422 147.461 132.027 147.2 131.521C146.939 131.013 146.808 130.423 146.808 129.753C146.808 129.077 146.939 128.486 147.2 127.98C147.461 127.472 147.832 127.077 148.312 126.795C148.795 126.511 149.368 126.369 150.029 126.369C150.691 126.369 151.262 126.511 151.743 126.795C152.225 127.077 152.598 127.472 152.859 127.98C153.12 128.486 153.251 129.077 153.251 129.753C153.251 130.423 153.12 131.013 152.859 131.521C152.598 132.027 152.225 132.422 151.743 132.706C151.262 132.987 150.691 133.128 150.029 133.128ZM150.038 131.722C150.339 131.722 150.591 131.636 150.792 131.466C150.994 131.293 151.146 131.057 151.248 130.759C151.353 130.46 151.406 130.121 151.406 129.74C151.406 129.359 151.353 129.02 151.248 128.722C151.146 128.423 150.994 128.187 150.792 128.014C150.591 127.841 150.339 127.754 150.038 127.754C149.734 127.754 149.478 127.841 149.271 128.014C149.066 128.187 148.912 128.423 148.806 128.722C148.704 129.02 148.653 129.359 148.653 129.74C148.653 130.121 148.704 130.46 148.806 130.759C148.912 131.057 149.066 131.293 149.271 131.466C149.478 131.636 149.734 131.722 150.038 131.722ZM160.323 126.455L158.034 133H155.989L153.701 126.455H155.618L156.978 131.138H157.046L158.401 126.455H160.323ZM164.024 133.128C163.35 133.128 162.771 132.991 162.285 132.719C161.802 132.443 161.43 132.054 161.169 131.551C160.907 131.045 160.777 130.447 160.777 129.757C160.777 129.084 160.907 128.493 161.169 127.984C161.43 127.476 161.798 127.08 162.272 126.795C162.75 126.511 163.309 126.369 163.951 126.369C164.383 126.369 164.785 126.439 165.157 126.578C165.532 126.714 165.859 126.92 166.137 127.196C166.419 127.472 166.637 127.818 166.794 128.236C166.95 128.651 167.028 129.136 167.028 129.693V130.192H161.501V129.067H165.319C165.319 128.805 165.262 128.574 165.149 128.372C165.035 128.17 164.877 128.013 164.676 127.899C164.477 127.783 164.245 127.724 163.981 127.724C163.706 127.724 163.461 127.788 163.248 127.916C163.038 128.041 162.873 128.21 162.754 128.423C162.635 128.634 162.574 128.868 162.571 129.126V130.196C162.571 130.52 162.63 130.8 162.75 131.036C162.872 131.271 163.044 131.453 163.265 131.581C163.487 131.709 163.75 131.773 164.054 131.773C164.255 131.773 164.44 131.744 164.608 131.688C164.775 131.631 164.919 131.545 165.038 131.432C165.157 131.318 165.248 131.179 165.311 131.014L166.99 131.125C166.904 131.528 166.73 131.881 166.466 132.182C166.204 132.48 165.866 132.713 165.451 132.881C165.039 133.045 164.564 133.128 164.024 133.128ZM172.805 124.273V133H170.99V124.273H172.805ZM177.243 133.128C176.569 133.128 175.99 132.991 175.504 132.719C175.021 132.443 174.649 132.054 174.387 131.551C174.126 131.045 173.995 130.447 173.995 129.757C173.995 129.084 174.126 128.493 174.387 127.984C174.649 127.476 175.017 127.08 175.491 126.795C175.968 126.511 176.528 126.369 177.17 126.369C177.602 126.369 178.004 126.439 178.376 126.578C178.751 126.714 179.078 126.92 179.356 127.196C179.637 127.472 179.856 127.818 180.012 128.236C180.169 128.651 180.247 129.136 180.247 129.693V130.192H174.72V129.067H178.538C178.538 128.805 178.481 128.574 178.368 128.372C178.254 128.17 178.096 128.013 177.895 127.899C177.696 127.783 177.464 127.724 177.2 127.724C176.924 127.724 176.68 127.788 176.467 127.916C176.257 128.041 176.092 128.21 175.973 128.423C175.853 128.634 175.792 128.868 175.789 129.126V130.196C175.789 130.52 175.849 130.8 175.968 131.036C176.091 131.271 176.262 131.453 176.484 131.581C176.706 131.709 176.968 131.773 177.272 131.773C177.474 131.773 177.659 131.744 177.826 131.688C177.994 131.631 178.137 131.545 178.257 131.432C178.376 131.318 178.467 131.179 178.529 131.014L180.208 131.125C180.123 131.528 179.949 131.881 179.684 132.182C179.423 132.48 179.085 132.713 178.67 132.881C178.258 133.045 177.782 133.128 177.243 133.128ZM184.951 126.455V127.818H180.912V126.455H184.951ZM181.836 133V125.982C181.836 125.507 181.929 125.114 182.113 124.801C182.301 124.489 182.556 124.254 182.88 124.098C183.204 123.942 183.572 123.864 183.984 123.864C184.262 123.864 184.517 123.885 184.747 123.928C184.98 123.97 185.153 124.009 185.267 124.043L184.943 125.406C184.872 125.384 184.784 125.362 184.679 125.342C184.576 125.322 184.471 125.312 184.363 125.312C184.096 125.312 183.91 125.375 183.805 125.5C183.7 125.622 183.647 125.794 183.647 126.016V133H181.836ZM189.542 126.455V127.818H185.6V126.455H189.542ZM186.495 124.886H188.31V130.989C188.31 131.156 188.336 131.287 188.387 131.381C188.438 131.472 188.509 131.536 188.6 131.572C188.694 131.609 188.802 131.628 188.924 131.628C189.009 131.628 189.094 131.621 189.18 131.607C189.265 131.589 189.33 131.577 189.376 131.568L189.661 132.919C189.57 132.947 189.442 132.98 189.278 133.017C189.113 133.057 188.913 133.081 188.677 133.089C188.239 133.107 187.856 133.048 187.526 132.915C187.2 132.781 186.945 132.574 186.763 132.293C186.582 132.011 186.492 131.656 186.495 131.227V124.886Z" fill="#C5C5C5"/>
<g filter="url(#filter2_d_1_2)">
<rect x="10" y="154.5" width="32" height="32" rx="4" fill="#D9D9D9"/>
</g>
<path d="M26.2498 174.977L25.2612 173.997L27.8564 171.402H21.7754V169.962H27.8564L25.2612 167.371L26.2498 166.386L30.5453 170.682L26.2498 174.977Z" fill="black"/>
<g filter="url(#filter3_d_1_2)">
<rect x="52" y="154.5" width="32" height="32" rx="4" fill="#D9D9D9"/>
</g>
<path d="M67.487 174.5H64.3933V165.773H67.5126C68.3904 165.773 69.1461 165.947 69.7797 166.297C70.4132 166.643 70.9004 167.142 71.2413 167.793C71.5851 168.443 71.7569 169.222 71.7569 170.128C71.7569 171.037 71.5851 171.818 71.2413 172.472C70.9004 173.125 70.4103 173.626 69.7711 173.976C69.1348 174.325 68.3734 174.5 67.487 174.5ZM66.2385 172.919H67.4103C67.9558 172.919 68.4146 172.822 68.7868 172.629C69.1618 172.433 69.443 172.131 69.6305 171.722C69.8208 171.31 69.916 170.778 69.916 170.128C69.916 169.483 69.8208 168.956 69.6305 168.547C69.443 168.138 69.1632 167.837 68.791 167.643C68.4189 167.45 67.96 167.354 67.4146 167.354H66.2385V172.919Z" fill="black"/>
<path d="M127.934 166.273H130.21L132.613 172.136H132.716L135.119 166.273H137.395V175H135.605V169.32H135.532L133.274 174.957H132.055L129.797 169.298H129.724V175H127.934V166.273ZM141.838 175.128C141.176 175.128 140.604 174.987 140.121 174.706C139.641 174.422 139.27 174.027 139.009 173.521C138.747 173.013 138.616 172.423 138.616 171.753C138.616 171.077 138.747 170.486 139.009 169.98C139.27 169.472 139.641 169.077 140.121 168.795C140.604 168.511 141.176 168.369 141.838 168.369C142.5 168.369 143.071 168.511 143.551 168.795C144.034 169.077 144.406 169.472 144.668 169.98C144.929 170.486 145.06 171.077 145.06 171.753C145.06 172.423 144.929 173.013 144.668 173.521C144.406 174.027 144.034 174.422 143.551 174.706C143.071 174.987 142.5 175.128 141.838 175.128ZM141.847 173.722C142.148 173.722 142.399 173.636 142.601 173.466C142.803 173.293 142.955 173.057 143.057 172.759C143.162 172.46 143.214 172.121 143.214 171.74C143.214 171.359 143.162 171.02 143.057 170.722C142.955 170.423 142.803 170.187 142.601 170.014C142.399 169.841 142.148 169.754 141.847 169.754C141.543 169.754 141.287 169.841 141.08 170.014C140.875 170.187 140.72 170.423 140.615 170.722C140.513 171.02 140.462 171.359 140.462 171.74C140.462 172.121 140.513 172.46 140.615 172.759C140.72 173.057 140.875 173.293 141.08 173.466C141.287 173.636 141.543 173.722 141.847 173.722ZM152.131 168.455L149.843 175H147.798L145.509 168.455H147.427L148.786 173.138H148.854L150.21 168.455H152.131ZM155.832 175.128C155.159 175.128 154.58 174.991 154.094 174.719C153.611 174.443 153.239 174.054 152.977 173.551C152.716 173.045 152.585 172.447 152.585 171.757C152.585 171.084 152.716 170.493 152.977 169.984C153.239 169.476 153.607 169.08 154.081 168.795C154.558 168.511 155.118 168.369 155.76 168.369C156.192 168.369 156.594 168.439 156.966 168.578C157.341 168.714 157.668 168.92 157.946 169.196C158.227 169.472 158.446 169.818 158.602 170.236C158.759 170.651 158.837 171.136 158.837 171.693V172.192H153.31V171.067H157.128C157.128 170.805 157.071 170.574 156.957 170.372C156.844 170.17 156.686 170.013 156.484 169.899C156.286 169.783 156.054 169.724 155.79 169.724C155.514 169.724 155.27 169.788 155.057 169.916C154.847 170.041 154.682 170.21 154.562 170.423C154.443 170.634 154.382 170.868 154.379 171.126V172.196C154.379 172.52 154.439 172.8 154.558 173.036C154.68 173.271 154.852 173.453 155.074 173.581C155.295 173.709 155.558 173.773 155.862 173.773C156.064 173.773 156.249 173.744 156.416 173.688C156.584 173.631 156.727 173.545 156.847 173.432C156.966 173.318 157.057 173.179 157.119 173.014L158.798 173.125C158.713 173.528 158.538 173.881 158.274 174.182C158.013 174.48 157.675 174.713 157.26 174.881C156.848 175.045 156.372 175.128 155.832 175.128ZM162.799 175V168.455H164.559V169.597H164.627C164.746 169.19 164.946 168.884 165.228 168.676C165.509 168.466 165.833 168.361 166.199 168.361C166.29 168.361 166.388 168.366 166.493 168.378C166.598 168.389 166.691 168.405 166.77 168.425V170.036C166.685 170.01 166.567 169.987 166.417 169.967C166.266 169.947 166.128 169.938 166.003 169.938C165.736 169.938 165.498 169.996 165.287 170.112C165.08 170.226 164.915 170.385 164.793 170.589C164.674 170.794 164.614 171.03 164.614 171.297V175H162.799ZM167.709 175V168.455H169.524V175H167.709ZM168.621 167.611C168.351 167.611 168.119 167.521 167.926 167.342C167.736 167.161 167.641 166.943 167.641 166.69C167.641 166.44 167.736 166.226 167.926 166.047C168.119 165.865 168.351 165.774 168.621 165.774C168.891 165.774 169.121 165.865 169.311 166.047C169.504 166.226 169.601 166.44 169.601 166.69C169.601 166.943 169.504 167.161 169.311 167.342C169.121 167.521 168.891 167.611 168.621 167.611ZM173.927 177.591C173.339 177.591 172.835 177.51 172.414 177.348C171.997 177.189 171.664 176.972 171.417 176.696C171.17 176.42 171.01 176.111 170.936 175.767L172.615 175.541C172.666 175.672 172.747 175.794 172.858 175.908C172.968 176.021 173.115 176.112 173.297 176.18C173.481 176.251 173.706 176.287 173.97 176.287C174.365 176.287 174.69 176.19 174.946 175.997C175.204 175.807 175.333 175.487 175.333 175.038V173.841H175.257C175.177 174.023 175.058 174.195 174.899 174.357C174.74 174.518 174.535 174.651 174.285 174.753C174.035 174.855 173.737 174.906 173.39 174.906C172.899 174.906 172.451 174.793 172.048 174.565C171.647 174.335 171.328 173.984 171.089 173.513C170.853 173.038 170.735 172.439 170.735 171.714C170.735 170.973 170.856 170.354 171.098 169.857C171.339 169.359 171.66 168.987 172.061 168.74C172.464 168.493 172.906 168.369 173.386 168.369C173.752 168.369 174.059 168.432 174.306 168.557C174.554 168.679 174.752 168.832 174.903 169.017C175.056 169.199 175.174 169.378 175.257 169.554H175.325V168.455H177.127V175.064C177.127 175.621 176.991 176.087 176.718 176.462C176.446 176.837 176.068 177.118 175.585 177.305C175.105 177.496 174.552 177.591 173.927 177.591ZM173.966 173.543C174.258 173.543 174.505 173.47 174.707 173.325C174.912 173.178 175.068 172.967 175.176 172.695C175.287 172.419 175.342 172.089 175.342 171.706C175.342 171.322 175.288 170.99 175.18 170.709C175.072 170.425 174.916 170.205 174.711 170.048C174.507 169.892 174.258 169.814 173.966 169.814C173.667 169.814 173.416 169.895 173.211 170.057C173.007 170.216 172.852 170.437 172.747 170.722C172.642 171.006 172.589 171.334 172.589 171.706C172.589 172.084 172.642 172.411 172.747 172.686C172.855 172.959 173.01 173.17 173.211 173.321C173.416 173.469 173.667 173.543 173.966 173.543ZM180.387 171.216V175H178.572V166.273H180.336V169.609H180.413C180.561 169.223 180.799 168.92 181.129 168.702C181.458 168.48 181.872 168.369 182.369 168.369C182.824 168.369 183.22 168.469 183.558 168.668C183.899 168.864 184.163 169.146 184.35 169.516C184.541 169.882 184.635 170.321 184.632 170.832V175H182.816V171.156C182.819 170.753 182.717 170.439 182.51 170.214C182.305 169.99 182.018 169.878 181.649 169.878C181.402 169.878 181.183 169.93 180.993 170.036C180.805 170.141 180.657 170.294 180.549 170.496C180.444 170.695 180.39 170.935 180.387 171.216ZM189.542 168.455V169.818H185.6V168.455H189.542ZM186.495 166.886H188.31V172.989C188.31 173.156 188.336 173.287 188.387 173.381C188.438 173.472 188.509 173.536 188.6 173.572C188.694 173.609 188.802 173.628 188.924 173.628C189.009 173.628 189.094 173.621 189.18 173.607C189.265 173.589 189.33 173.577 189.376 173.568L189.661 174.919C189.57 174.947 189.442 174.98 189.278 175.017C189.113 175.057 188.913 175.081 188.677 175.089C188.239 175.107 187.856 175.048 187.526 174.915C187.2 174.781 186.945 174.574 186.763 174.293C186.582 174.011 186.492 173.656 186.495 173.227V166.886Z" fill="#C5C5C5"/>
<g filter="url(#filter4_d_1_2)">
<rect x="10" y="196.5" width="32" height="32" rx="4" fill="#D9D9D9"/>
</g>
<path d="M26.7228 207.773V213.862L28.9941 211.582L29.9913 212.571L26.0027 216.551L22.0225 212.571L23.0027 211.582L25.2825 213.862V207.773H26.7228Z" fill="black"/>
<g filter="url(#filter5_d_1_2)">
<rect x="52" y="196.5" width="32" height="32" rx="4" fill="#D9D9D9"/>
</g>
<path d="M69.5613 210.283C69.5272 209.939 69.3809 209.672 69.1223 209.482C68.8638 209.291 68.513 209.196 68.0698 209.196C67.7686 209.196 67.5144 209.239 67.307 209.324C67.0996 209.406 66.9405 209.521 66.8297 209.669C66.7218 209.817 66.6678 209.984 66.6678 210.172C66.6621 210.328 66.6948 210.464 66.7658 210.581C66.8397 210.697 66.9405 210.798 67.0684 210.884C67.1962 210.966 67.3439 211.038 67.5115 211.101C67.6792 211.161 67.8581 211.212 68.0485 211.254L68.8326 211.442C69.2132 211.527 69.5627 211.641 69.8809 211.783C70.199 211.925 70.4746 212.099 70.7076 212.307C70.9405 212.514 71.1209 212.759 71.2488 213.04C71.3794 213.321 71.4462 213.643 71.449 214.007C71.4462 214.541 71.3098 215.004 71.04 215.396C70.7729 215.786 70.3865 216.088 69.8809 216.304C69.378 216.517 68.7715 216.624 68.0613 216.624C67.3567 216.624 66.7431 216.516 66.2203 216.3C65.7005 216.084 65.2942 215.764 65.0016 215.341C64.7118 214.915 64.5598 214.388 64.5456 213.76H66.3311C66.351 214.053 66.4348 214.297 66.5826 214.493C66.7331 214.686 66.9334 214.832 67.1834 214.932C67.4363 215.028 67.7218 215.077 68.04 215.077C68.3525 215.077 68.6238 215.031 68.8539 214.94C69.0868 214.849 69.2672 214.723 69.3951 214.561C69.5229 214.399 69.5868 214.213 69.5868 214.003C69.5868 213.807 69.5286 213.642 69.4121 213.509C69.2985 213.375 69.1309 213.261 68.9093 213.168C68.6905 213.074 68.4221 212.989 68.1039 212.912L67.1536 212.673C66.4178 212.494 65.8368 212.214 65.4107 211.834C64.9846 211.453 64.7729 210.94 64.7757 210.295C64.7729 209.767 64.9135 209.305 65.1976 208.911C65.4846 208.516 65.878 208.207 66.378 207.986C66.878 207.764 67.4462 207.653 68.0826 207.653C68.7303 207.653 69.2956 207.764 69.7786 207.986C70.2644 208.207 70.6422 208.516 70.9121 208.911C71.182 209.305 71.3212 209.763 71.3297 210.283H69.5613Z" fill="black"/>
<path d="M140.227 210.783C140.193 210.439 140.047 210.172 139.788 209.982C139.53 209.791 139.179 209.696 138.736 209.696C138.435 209.696 138.18 209.739 137.973 209.824C137.766 209.906 137.607 210.021 137.496 210.169C137.388 210.317 137.334 210.484 137.334 210.672C137.328 210.828 137.361 210.964 137.432 211.081C137.506 211.197 137.607 211.298 137.734 211.384C137.862 211.466 138.01 211.538 138.178 211.601C138.345 211.661 138.524 211.712 138.714 211.754L139.499 211.942C139.879 212.027 140.229 212.141 140.547 212.283C140.865 212.425 141.141 212.599 141.374 212.807C141.607 213.014 141.787 213.259 141.915 213.54C142.045 213.821 142.112 214.143 142.115 214.507C142.112 215.041 141.976 215.504 141.706 215.896C141.439 216.286 141.053 216.588 140.547 216.804C140.044 217.017 139.438 217.124 138.727 217.124C138.023 217.124 137.409 217.016 136.886 216.8C136.366 216.584 135.96 216.264 135.668 215.841C135.378 215.415 135.226 214.888 135.212 214.26H136.997C137.017 214.553 137.101 214.797 137.249 214.993C137.399 215.186 137.599 215.332 137.849 215.432C138.102 215.528 138.388 215.577 138.706 215.577C139.018 215.577 139.29 215.531 139.52 215.44C139.753 215.349 139.933 215.223 140.061 215.061C140.189 214.899 140.253 214.713 140.253 214.503C140.253 214.307 140.195 214.142 140.078 214.009C139.964 213.875 139.797 213.761 139.575 213.668C139.357 213.574 139.088 213.489 138.77 213.412L137.82 213.173C137.084 212.994 136.503 212.714 136.077 212.334C135.651 211.953 135.439 211.44 135.442 210.795C135.439 210.267 135.58 209.805 135.864 209.411C136.151 209.016 136.544 208.707 137.044 208.486C137.544 208.264 138.112 208.153 138.749 208.153C139.396 208.153 139.962 208.264 140.445 208.486C140.93 208.707 141.308 209.016 141.578 209.411C141.848 209.805 141.987 210.263 141.996 210.783H140.227ZM143.322 219.455V210.455H145.112V211.554H145.193C145.272 211.378 145.387 211.199 145.538 211.017C145.691 210.832 145.89 210.679 146.135 210.557C146.382 210.432 146.689 210.369 147.055 210.369C147.532 210.369 147.973 210.494 148.376 210.744C148.779 210.991 149.102 211.365 149.343 211.865C149.585 212.362 149.706 212.986 149.706 213.736C149.706 214.466 149.588 215.082 149.352 215.585C149.119 216.085 148.801 216.464 148.397 216.723C147.997 216.979 147.548 217.107 147.051 217.107C146.699 217.107 146.399 217.048 146.152 216.932C145.907 216.815 145.707 216.669 145.551 216.493C145.395 216.314 145.275 216.134 145.193 215.952H145.137V219.455H143.322ZM145.099 213.727C145.099 214.116 145.153 214.456 145.261 214.746C145.369 215.036 145.525 215.261 145.73 215.423C145.934 215.582 146.183 215.662 146.475 215.662C146.771 215.662 147.021 215.581 147.225 215.419C147.43 215.254 147.585 215.027 147.69 214.737C147.798 214.445 147.852 214.108 147.852 213.727C147.852 213.349 147.799 213.017 147.694 212.73C147.589 212.443 147.434 212.219 147.23 212.057C147.025 211.895 146.774 211.814 146.475 211.814C146.18 211.814 145.93 211.892 145.725 212.048C145.524 212.205 145.369 212.426 145.261 212.713C145.153 213 145.099 213.338 145.099 213.727ZM153.899 217.128C153.225 217.128 152.646 216.991 152.16 216.719C151.677 216.443 151.305 216.054 151.044 215.551C150.782 215.045 150.652 214.447 150.652 213.757C150.652 213.084 150.782 212.493 151.044 211.984C151.305 211.476 151.673 211.08 152.147 210.795C152.625 210.511 153.184 210.369 153.826 210.369C154.258 210.369 154.66 210.439 155.032 210.578C155.407 210.714 155.734 210.92 156.012 211.196C156.294 211.472 156.512 211.818 156.669 212.236C156.825 212.651 156.903 213.136 156.903 213.693V214.192H151.376V213.067H155.194C155.194 212.805 155.137 212.574 155.024 212.372C154.91 212.17 154.752 212.013 154.551 211.899C154.352 211.783 154.12 211.724 153.856 211.724C153.581 211.724 153.336 211.788 153.123 211.916C152.913 212.041 152.748 212.21 152.629 212.423C152.51 212.634 152.449 212.868 152.446 213.126V214.196C152.446 214.52 152.505 214.8 152.625 215.036C152.747 215.271 152.919 215.453 153.14 215.581C153.362 215.709 153.625 215.773 153.929 215.773C154.13 215.773 154.315 215.744 154.483 215.688C154.65 215.631 154.794 215.545 154.913 215.432C155.032 215.318 155.123 215.179 155.186 215.014L156.865 215.125C156.779 215.528 156.605 215.881 156.341 216.182C156.079 216.48 155.741 216.713 155.326 216.881C154.914 217.045 154.439 217.128 153.899 217.128ZM161.071 217.128C160.397 217.128 159.818 216.991 159.332 216.719C158.849 216.443 158.477 216.054 158.216 215.551C157.954 215.045 157.824 214.447 157.824 213.757C157.824 213.084 157.954 212.493 158.216 211.984C158.477 211.476 158.845 211.08 159.319 210.795C159.797 210.511 160.356 210.369 160.998 210.369C161.43 210.369 161.832 210.439 162.204 210.578C162.579 210.714 162.906 210.92 163.184 211.196C163.466 211.472 163.684 211.818 163.841 212.236C163.997 212.651 164.075 213.136 164.075 213.693V214.192H158.548V213.067H162.366C162.366 212.805 162.309 212.574 162.196 212.372C162.082 212.17 161.924 212.013 161.723 211.899C161.524 211.783 161.292 211.724 161.028 211.724C160.752 211.724 160.508 211.788 160.295 211.916C160.085 212.041 159.92 212.21 159.801 212.423C159.681 212.634 159.62 212.868 159.618 213.126V214.196C159.618 214.52 159.677 214.8 159.797 215.036C159.919 215.271 160.091 215.453 160.312 215.581C160.534 215.709 160.797 215.773 161.1 215.773C161.302 215.773 161.487 215.744 161.654 215.688C161.822 215.631 161.966 215.545 162.085 215.432C162.204 215.318 162.295 215.179 162.358 215.014L164.037 215.125C163.951 215.528 163.777 215.881 163.512 216.182C163.251 216.48 162.913 216.713 162.498 216.881C162.086 217.045 161.61 217.128 161.071 217.128ZM167.672 217.107C167.174 217.107 166.724 216.979 166.321 216.723C165.92 216.464 165.602 216.085 165.366 215.585C165.133 215.082 165.017 214.466 165.017 213.736C165.017 212.986 165.137 212.362 165.379 211.865C165.62 211.365 165.941 210.991 166.342 210.744C166.745 210.494 167.187 210.369 167.667 210.369C168.034 210.369 168.339 210.432 168.583 210.557C168.831 210.679 169.029 210.832 169.18 211.017C169.333 211.199 169.45 211.378 169.529 211.554H169.585V208.273H171.396V217H169.606V215.952H169.529C169.444 216.134 169.324 216.314 169.167 216.493C169.014 216.669 168.814 216.815 168.566 216.932C168.322 217.048 168.024 217.107 167.672 217.107ZM168.247 215.662C168.539 215.662 168.787 215.582 168.988 215.423C169.193 215.261 169.349 215.036 169.457 214.746C169.568 214.456 169.623 214.116 169.623 213.727C169.623 213.338 169.569 213 169.461 212.713C169.353 212.426 169.197 212.205 168.993 212.048C168.788 211.892 168.539 211.814 168.247 211.814C167.949 211.814 167.697 211.895 167.493 212.057C167.288 212.219 167.133 212.443 167.028 212.73C166.923 213.017 166.87 213.349 166.87 213.727C166.87 214.108 166.923 214.445 167.028 214.737C167.136 215.027 167.291 215.254 167.493 215.419C167.697 215.581 167.949 215.662 168.247 215.662ZM179.863 214.213V210.455H181.679V217H179.936V215.811H179.868C179.72 216.195 179.474 216.503 179.13 216.736C178.789 216.969 178.373 217.085 177.882 217.085C177.444 217.085 177.059 216.986 176.727 216.787C176.395 216.588 176.135 216.305 175.947 215.939C175.762 215.572 175.669 215.134 175.666 214.622V210.455H177.481V214.298C177.484 214.685 177.588 214.99 177.792 215.214C177.997 215.439 178.271 215.551 178.615 215.551C178.833 215.551 179.038 215.501 179.228 215.402C179.419 215.3 179.572 215.149 179.689 214.95C179.808 214.751 179.866 214.506 179.863 214.213ZM183.131 219.455V210.455H184.92V211.554H185.001C185.081 211.378 185.196 211.199 185.347 211.017C185.5 210.832 185.699 210.679 185.943 210.557C186.19 210.432 186.497 210.369 186.864 210.369C187.341 210.369 187.781 210.494 188.185 210.744C188.588 210.991 188.911 211.365 189.152 211.865C189.393 212.362 189.514 212.986 189.514 213.736C189.514 214.466 189.396 215.082 189.161 215.585C188.928 216.085 188.609 216.464 188.206 216.723C187.805 216.979 187.357 217.107 186.859 217.107C186.507 217.107 186.207 217.048 185.96 216.932C185.716 216.815 185.516 216.669 185.359 216.493C185.203 216.314 185.084 216.134 185.001 215.952H184.946V219.455H183.131ZM184.908 213.727C184.908 214.116 184.962 214.456 185.07 214.746C185.178 215.036 185.334 215.261 185.538 215.423C185.743 215.582 185.991 215.662 186.284 215.662C186.58 215.662 186.83 215.581 187.034 215.419C187.239 215.254 187.393 215.027 187.499 214.737C187.607 214.445 187.661 214.108 187.661 213.727C187.661 213.349 187.608 213.017 187.503 212.73C187.398 212.443 187.243 212.219 187.038 212.057C186.834 211.895 186.582 211.814 186.284 211.814C185.989 211.814 185.739 211.892 185.534 212.048C185.332 212.205 185.178 212.426 185.07 212.713C184.962 213 184.908 213.338 184.908 213.727Z" fill="#C5C5C5"/>
<g filter="url(#filter6_d_1_2)">
<rect x="10" y="238.5" width="32" height="32" rx="4" fill="#D9D9D9"/>
</g>
<path d="M25.2825 258.5V252.411L23.0112 254.69L22.014 253.702L26.0027 249.722L29.9828 253.702L29.0027 254.69L26.7228 252.411V258.5H25.2825Z" fill="black"/>
<g filter="url(#filter7_d_1_2)">
<rect x="52" y="238.5" width="32" height="32" rx="4" fill="#D9D9D9"/>
</g>
<path d="M64.5062 258.5L62.0091 249.773H64.0247L65.4693 255.837H65.5417L67.1355 249.773H68.8613L70.4508 255.849H70.5275L71.9721 249.773H73.9877L71.4906 258.5H69.6923L68.0304 252.794H67.9622L66.3045 258.5H64.5062Z" fill="black"/>
<path d="M114.727 259V250.273H118.17C118.83 250.273 119.392 250.391 119.858 250.626C120.327 250.859 120.683 251.19 120.928 251.619C121.175 252.045 121.298 252.547 121.298 253.124C121.298 253.703 121.173 254.202 120.923 254.619C120.673 255.034 120.311 255.352 119.837 255.574C119.365 255.795 118.794 255.906 118.124 255.906H115.818V254.423H117.825C118.178 254.423 118.47 254.375 118.703 254.278C118.936 254.182 119.109 254.037 119.223 253.844C119.339 253.651 119.398 253.411 119.398 253.124C119.398 252.834 119.339 252.589 119.223 252.391C119.109 252.192 118.935 252.041 118.699 251.939C118.466 251.834 118.172 251.781 117.817 251.781H116.572V259H114.727ZM119.44 255.028L121.609 259H119.572L117.45 255.028H119.44ZM125.42 259.128C124.758 259.128 124.186 258.987 123.703 258.706C123.223 258.422 122.852 258.027 122.591 257.521C122.329 257.013 122.199 256.423 122.199 255.753C122.199 255.077 122.329 254.486 122.591 253.98C122.852 253.472 123.223 253.077 123.703 252.795C124.186 252.511 124.758 252.369 125.42 252.369C126.082 252.369 126.653 252.511 127.133 252.795C127.616 253.077 127.988 253.472 128.25 253.98C128.511 254.486 128.642 255.077 128.642 255.753C128.642 256.423 128.511 257.013 128.25 257.521C127.988 258.027 127.616 258.422 127.133 258.706C126.653 258.987 126.082 259.128 125.42 259.128ZM125.429 257.722C125.73 257.722 125.981 257.636 126.183 257.466C126.385 257.293 126.537 257.057 126.639 256.759C126.744 256.46 126.797 256.121 126.797 255.74C126.797 255.359 126.744 255.02 126.639 254.722C126.537 254.423 126.385 254.187 126.183 254.014C125.981 253.841 125.73 253.754 125.429 253.754C125.125 253.754 124.869 253.841 124.662 254.014C124.457 254.187 124.302 254.423 124.197 254.722C124.095 255.02 124.044 255.359 124.044 255.74C124.044 256.121 124.095 256.46 124.197 256.759C124.302 257.057 124.457 257.293 124.662 257.466C124.869 257.636 125.125 257.722 125.429 257.722ZM133.304 252.455V253.818H129.362V252.455H133.304ZM130.257 250.886H132.072V256.989C132.072 257.156 132.098 257.287 132.149 257.381C132.2 257.472 132.271 257.536 132.362 257.572C132.456 257.609 132.564 257.628 132.686 257.628C132.771 257.628 132.856 257.621 132.941 257.607C133.027 257.589 133.092 257.577 133.137 257.568L133.423 258.919C133.332 258.947 133.204 258.98 133.039 259.017C132.875 259.057 132.674 259.081 132.439 259.089C132.001 259.107 131.618 259.048 131.288 258.915C130.961 258.781 130.707 258.574 130.525 258.293C130.343 258.011 130.254 257.656 130.257 257.227V250.886ZM136.353 259.124C135.935 259.124 135.563 259.051 135.236 258.906C134.909 258.759 134.651 258.541 134.461 258.254C134.273 257.964 134.179 257.604 134.179 257.172C134.179 256.808 134.246 256.503 134.38 256.256C134.513 256.009 134.695 255.81 134.925 255.659C135.155 255.509 135.417 255.395 135.709 255.318C136.005 255.241 136.314 255.188 136.638 255.156C137.019 255.116 137.326 255.08 137.559 255.045C137.792 255.009 137.961 254.955 138.066 254.884C138.171 254.812 138.223 254.707 138.223 254.568V254.543C138.223 254.273 138.138 254.064 137.968 253.916C137.8 253.768 137.561 253.695 137.252 253.695C136.925 253.695 136.665 253.767 136.472 253.912C136.279 254.054 136.151 254.233 136.088 254.449L134.409 254.312C134.495 253.915 134.662 253.571 134.912 253.281C135.162 252.989 135.485 252.764 135.88 252.608C136.277 252.449 136.738 252.369 137.26 252.369C137.624 252.369 137.972 252.412 138.304 252.497C138.64 252.582 138.936 252.714 139.195 252.893C139.456 253.072 139.662 253.303 139.813 253.584C139.963 253.862 140.039 254.196 140.039 254.585V259H138.317V258.092H138.266C138.161 258.297 138.02 258.477 137.844 258.634C137.668 258.787 137.456 258.908 137.209 258.996C136.962 259.081 136.676 259.124 136.353 259.124ZM136.873 257.871C137.14 257.871 137.375 257.818 137.58 257.713C137.784 257.605 137.945 257.46 138.061 257.278C138.178 257.097 138.236 256.891 138.236 256.661V255.966C138.179 256.003 138.101 256.037 138.002 256.068C137.905 256.097 137.796 256.124 137.674 256.149C137.551 256.172 137.429 256.193 137.307 256.213C137.185 256.23 137.074 256.246 136.975 256.26C136.762 256.291 136.576 256.341 136.417 256.409C136.257 256.477 136.134 256.57 136.046 256.686C135.958 256.8 135.914 256.942 135.914 257.112C135.914 257.359 136.003 257.548 136.182 257.679C136.364 257.807 136.594 257.871 136.873 257.871ZM144.929 252.455V253.818H140.987V252.455H144.929ZM141.882 250.886H143.697V256.989C143.697 257.156 143.723 257.287 143.774 257.381C143.825 257.472 143.896 257.536 143.987 257.572C144.081 257.609 144.189 257.628 144.311 257.628C144.396 257.628 144.481 257.621 144.566 257.607C144.652 257.589 144.717 257.577 144.762 257.568L145.048 258.919C144.957 258.947 144.829 258.98 144.664 259.017C144.5 259.057 144.299 259.081 144.064 259.089C143.626 259.107 143.243 259.048 142.913 258.915C142.586 258.781 142.332 258.574 142.15 258.293C141.968 258.011 141.879 257.656 141.882 257.227V250.886ZM149.024 259.128C148.35 259.128 147.771 258.991 147.285 258.719C146.802 258.443 146.43 258.054 146.169 257.551C145.907 257.045 145.777 256.447 145.777 255.757C145.777 255.084 145.907 254.493 146.169 253.984C146.43 253.476 146.798 253.08 147.272 252.795C147.75 252.511 148.309 252.369 148.951 252.369C149.383 252.369 149.785 252.439 150.157 252.578C150.532 252.714 150.859 252.92 151.137 253.196C151.419 253.472 151.637 253.818 151.794 254.236C151.95 254.651 152.028 255.136 152.028 255.693V256.192H146.501V255.067H150.319C150.319 254.805 150.262 254.574 150.149 254.372C150.035 254.17 149.877 254.013 149.676 253.899C149.477 253.783 149.245 253.724 148.981 253.724C148.706 253.724 148.461 253.788 148.248 253.916C148.038 254.041 147.873 254.21 147.754 254.423C147.635 254.634 147.574 254.868 147.571 255.126V256.196C147.571 256.52 147.63 256.8 147.75 257.036C147.872 257.271 148.044 257.453 148.265 257.581C148.487 257.709 148.75 257.773 149.054 257.773C149.255 257.773 149.44 257.744 149.608 257.688C149.775 257.631 149.919 257.545 150.038 257.432C150.157 257.318 150.248 257.179 150.311 257.014L151.99 257.125C151.904 257.528 151.73 257.881 151.466 258.182C151.204 258.48 150.866 258.713 150.451 258.881C150.039 259.045 149.564 259.128 149.024 259.128ZM159.51 252.455V253.818H155.47V252.455H159.51ZM156.395 259V251.982C156.395 251.507 156.487 251.114 156.672 250.801C156.859 250.489 157.115 250.254 157.439 250.098C157.763 249.942 158.131 249.864 158.543 249.864C158.821 249.864 159.075 249.885 159.305 249.928C159.538 249.97 159.712 250.009 159.825 250.043L159.501 251.406C159.43 251.384 159.342 251.362 159.237 251.342C159.135 251.322 159.03 251.312 158.922 251.312C158.655 251.312 158.469 251.375 158.364 251.5C158.259 251.622 158.206 251.794 158.206 252.016V259H156.395ZM160.619 259V252.455H162.434V259H160.619ZM161.531 251.611C161.261 251.611 161.029 251.521 160.836 251.342C160.646 251.161 160.551 250.943 160.551 250.69C160.551 250.44 160.646 250.226 160.836 250.047C161.029 249.865 161.261 249.774 161.531 249.774C161.801 249.774 162.031 249.865 162.221 250.047C162.414 250.226 162.511 250.44 162.511 250.69C162.511 250.943 162.414 251.161 162.221 251.342C162.031 251.521 161.801 251.611 161.531 251.611ZM166.837 261.591C166.249 261.591 165.745 261.51 165.325 261.348C164.907 261.189 164.575 260.972 164.327 260.696C164.08 260.42 163.92 260.111 163.846 259.767L165.525 259.541C165.576 259.672 165.657 259.794 165.768 259.908C165.879 260.021 166.025 260.112 166.207 260.18C166.391 260.251 166.616 260.287 166.88 260.287C167.275 260.287 167.6 260.19 167.856 259.997C168.114 259.807 168.244 259.487 168.244 259.038V257.841H168.167C168.087 258.023 167.968 258.195 167.809 258.357C167.65 258.518 167.445 258.651 167.195 258.753C166.945 258.855 166.647 258.906 166.3 258.906C165.809 258.906 165.362 258.793 164.958 258.565C164.558 258.335 164.238 257.984 163.999 257.513C163.763 257.038 163.646 256.439 163.646 255.714C163.646 254.973 163.766 254.354 164.008 253.857C164.249 253.359 164.57 252.987 164.971 252.74C165.374 252.493 165.816 252.369 166.296 252.369C166.663 252.369 166.969 252.432 167.217 252.557C167.464 252.679 167.663 252.832 167.813 253.017C167.967 253.199 168.085 253.378 168.167 253.554H168.235V252.455H170.038V259.064C170.038 259.621 169.901 260.087 169.629 260.462C169.356 260.837 168.978 261.118 168.495 261.305C168.015 261.496 167.462 261.591 166.837 261.591ZM166.876 257.543C167.168 257.543 167.415 257.47 167.617 257.325C167.822 257.178 167.978 256.967 168.086 256.695C168.197 256.419 168.252 256.089 168.252 255.706C168.252 255.322 168.198 254.99 168.09 254.709C167.982 254.425 167.826 254.205 167.621 254.048C167.417 253.892 167.168 253.814 166.876 253.814C166.577 253.814 166.326 253.895 166.121 254.057C165.917 254.216 165.762 254.437 165.657 254.722C165.552 255.006 165.499 255.334 165.499 255.706C165.499 256.084 165.552 256.411 165.657 256.686C165.765 256.959 165.92 257.17 166.121 257.321C166.326 257.469 166.577 257.543 166.876 257.543ZM175.68 256.213V252.455H177.495V259H175.752V257.811H175.684C175.536 258.195 175.29 258.503 174.947 258.736C174.606 258.969 174.19 259.085 173.698 259.085C173.261 259.085 172.876 258.986 172.543 258.787C172.211 258.588 171.951 258.305 171.763 257.939C171.579 257.572 171.485 257.134 171.482 256.622V252.455H173.298V256.298C173.3 256.685 173.404 256.99 173.609 257.214C173.813 257.439 174.087 257.551 174.431 257.551C174.65 257.551 174.854 257.501 175.045 257.402C175.235 257.3 175.388 257.149 175.505 256.95C175.624 256.751 175.683 256.506 175.68 256.213ZM178.947 259V252.455H180.707V253.597H180.775C180.895 253.19 181.095 252.884 181.376 252.676C181.657 252.466 181.981 252.361 182.348 252.361C182.439 252.361 182.537 252.366 182.642 252.378C182.747 252.389 182.839 252.405 182.919 252.425V254.036C182.833 254.01 182.716 253.987 182.565 253.967C182.414 253.947 182.277 253.938 182.152 253.938C181.885 253.938 181.646 253.996 181.436 254.112C181.228 254.226 181.064 254.385 180.941 254.589C180.822 254.794 180.762 255.03 180.762 255.297V259H178.947ZM186.536 259.128C185.862 259.128 185.283 258.991 184.797 258.719C184.314 258.443 183.942 258.054 183.68 257.551C183.419 257.045 183.288 256.447 183.288 255.757C183.288 255.084 183.419 254.493 183.68 253.984C183.942 253.476 184.31 253.08 184.784 252.795C185.261 252.511 185.821 252.369 186.463 252.369C186.895 252.369 187.297 252.439 187.669 252.578C188.044 252.714 188.371 252.92 188.649 253.196C188.93 253.472 189.149 253.818 189.305 254.236C189.462 254.651 189.54 255.136 189.54 255.693V256.192H184.013V255.067H187.831C187.831 254.805 187.774 254.574 187.661 254.372C187.547 254.17 187.389 254.013 187.188 253.899C186.989 253.783 186.757 253.724 186.493 253.724C186.217 253.724 185.973 253.788 185.76 253.916C185.55 254.041 185.385 254.21 185.266 254.423C185.146 254.634 185.085 254.868 185.082 255.126V256.196C185.082 256.52 185.142 256.8 185.261 257.036C185.384 257.271 185.555 257.453 185.777 257.581C185.999 257.709 186.261 257.773 186.565 257.773C186.767 257.773 186.952 257.744 187.119 257.688C187.287 257.631 187.43 257.545 187.55 257.432C187.669 257.318 187.76 257.179 187.822 257.014L189.501 257.125C189.416 257.528 189.241 257.881 188.977 258.182C188.716 258.48 188.378 258.713 187.963 258.881C187.551 259.045 187.075 259.128 186.536 259.128Z" fill="#C5C5C5"/>
<g filter="url(#filter8_d_1_2)">
<rect x="10" y="280.5" width="32" height="32" rx="4" fill="#D9D9D9"/>
</g>
<path d="M22.821 300.5V291.773H26.2642C26.9233 291.773 27.4858 291.891 27.9517 292.126C28.4205 292.359 28.777 292.69 29.0213 293.119C29.2685 293.545 29.392 294.047 29.392 294.624C29.392 295.203 29.267 295.702 29.017 296.119C28.767 296.534 28.4048 296.852 27.9304 297.074C27.4588 297.295 26.8878 297.406 26.2173 297.406H23.9119V295.923H25.919C26.2713 295.923 26.5639 295.875 26.7969 295.778C27.0298 295.682 27.2031 295.537 27.3168 295.344C27.4332 295.151 27.4915 294.911 27.4915 294.624C27.4915 294.334 27.4332 294.089 27.3168 293.891C27.2031 293.692 27.0284 293.541 26.7926 293.439C26.5597 293.334 26.2656 293.281 25.9105 293.281H24.6662V300.5H22.821ZM27.5341 296.528L29.7031 300.5H27.6662L25.544 296.528H27.5341Z" fill="black"/>
<g filter="url(#filter9_d_1_2)">
<rect x="52" y="280.5" width="32" height="32" rx="4" fill="#D9D9D9"/>
</g>
<path d="M64.2447 299.682H65.6765V301.143H70.3129V299.682H71.7532V302.503H64.2447V299.682Z" fill="black"/>
<path d="M123.458 294.783C123.424 294.439 123.277 294.172 123.019 293.982C122.76 293.791 122.409 293.696 121.966 293.696C121.665 293.696 121.411 293.739 121.203 293.824C120.996 293.906 120.837 294.021 120.726 294.169C120.618 294.317 120.564 294.484 120.564 294.672C120.559 294.828 120.591 294.964 120.662 295.081C120.736 295.197 120.837 295.298 120.965 295.384C121.093 295.466 121.24 295.538 121.408 295.601C121.576 295.661 121.755 295.712 121.945 295.754L122.729 295.942C123.11 296.027 123.459 296.141 123.777 296.283C124.096 296.425 124.371 296.599 124.604 296.807C124.837 297.014 125.017 297.259 125.145 297.54C125.276 297.821 125.343 298.143 125.346 298.507C125.343 299.041 125.206 299.504 124.936 299.896C124.669 300.286 124.283 300.588 123.777 300.804C123.275 301.017 122.668 301.124 121.958 301.124C121.253 301.124 120.64 301.016 120.117 300.8C119.597 300.584 119.191 300.264 118.898 299.841C118.608 299.415 118.456 298.888 118.442 298.26H120.228C120.248 298.553 120.331 298.797 120.479 298.993C120.63 299.186 120.83 299.332 121.08 299.432C121.333 299.528 121.618 299.577 121.936 299.577C122.249 299.577 122.52 299.531 122.75 299.44C122.983 299.349 123.164 299.223 123.292 299.061C123.419 298.899 123.483 298.713 123.483 298.503C123.483 298.307 123.425 298.142 123.309 298.009C123.195 297.875 123.027 297.761 122.806 297.668C122.587 297.574 122.319 297.489 122 297.412L121.05 297.173C120.314 296.994 119.733 296.714 119.307 296.334C118.881 295.953 118.669 295.44 118.672 294.795C118.669 294.267 118.81 293.805 119.094 293.411C119.381 293.016 119.775 292.707 120.275 292.486C120.775 292.264 121.343 292.153 121.979 292.153C122.627 292.153 123.192 292.264 123.675 292.486C124.161 292.707 124.539 293.016 124.809 293.411C125.078 293.805 125.218 294.263 125.226 294.783H123.458ZM130.034 294.455V295.818H126.092V294.455H130.034ZM126.987 292.886H128.803V298.989C128.803 299.156 128.828 299.287 128.879 299.381C128.93 299.472 129.001 299.536 129.092 299.572C129.186 299.609 129.294 299.628 129.416 299.628C129.501 299.628 129.587 299.621 129.672 299.607C129.757 299.589 129.822 299.577 129.868 299.568L130.153 300.919C130.063 300.947 129.935 300.98 129.77 301.017C129.605 301.057 129.405 301.081 129.169 301.089C128.732 301.107 128.348 301.048 128.018 300.915C127.692 300.781 127.438 300.574 127.256 300.293C127.074 300.011 126.984 299.656 126.987 299.227V292.886ZM133.083 301.124C132.665 301.124 132.293 301.051 131.967 300.906C131.64 300.759 131.381 300.541 131.191 300.254C131.004 299.964 130.91 299.604 130.91 299.172C130.91 298.808 130.977 298.503 131.11 298.256C131.244 298.009 131.425 297.81 131.656 297.659C131.886 297.509 132.147 297.395 132.44 297.318C132.735 297.241 133.045 297.188 133.369 297.156C133.749 297.116 134.056 297.08 134.289 297.045C134.522 297.009 134.691 296.955 134.796 296.884C134.901 296.812 134.954 296.707 134.954 296.568V296.543C134.954 296.273 134.869 296.064 134.698 295.916C134.531 295.768 134.292 295.695 133.982 295.695C133.656 295.695 133.396 295.767 133.202 295.912C133.009 296.054 132.881 296.233 132.819 296.449L131.14 296.312C131.225 295.915 131.393 295.571 131.643 295.281C131.893 294.989 132.215 294.764 132.61 294.608C133.008 294.449 133.468 294.369 133.991 294.369C134.354 294.369 134.702 294.412 135.035 294.497C135.37 294.582 135.667 294.714 135.925 294.893C136.187 295.072 136.393 295.303 136.543 295.584C136.694 295.862 136.769 296.196 136.769 296.585V301H135.048V300.092H134.996C134.891 300.297 134.751 300.477 134.575 300.634C134.398 300.787 134.187 300.908 133.94 300.996C133.692 301.081 133.407 301.124 133.083 301.124ZM133.603 299.871C133.87 299.871 134.106 299.818 134.31 299.713C134.515 299.605 134.675 299.46 134.792 299.278C134.908 299.097 134.967 298.891 134.967 298.661V297.966C134.91 298.003 134.832 298.037 134.732 298.068C134.636 298.097 134.526 298.124 134.404 298.149C134.282 298.172 134.16 298.193 134.038 298.213C133.915 298.23 133.805 298.246 133.705 298.26C133.492 298.291 133.306 298.341 133.147 298.409C132.988 298.477 132.864 298.57 132.776 298.686C132.688 298.8 132.644 298.942 132.644 299.112C132.644 299.359 132.734 299.548 132.913 299.679C133.094 299.807 133.325 299.871 133.603 299.871ZM141.135 301.128C140.464 301.128 139.888 300.986 139.405 300.702C138.925 300.415 138.555 300.017 138.297 299.509C138.041 299 137.913 298.415 137.913 297.753C137.913 297.082 138.043 296.494 138.301 295.989C138.563 295.48 138.933 295.084 139.413 294.8C139.893 294.513 140.464 294.369 141.126 294.369C141.697 294.369 142.197 294.473 142.626 294.68C143.055 294.888 143.395 295.179 143.645 295.554C143.895 295.929 144.033 296.369 144.058 296.875H142.345C142.297 296.548 142.169 296.286 141.962 296.087C141.757 295.885 141.489 295.784 141.156 295.784C140.875 295.784 140.629 295.861 140.419 296.014C140.212 296.165 140.05 296.385 139.933 296.675C139.817 296.964 139.759 297.315 139.759 297.727C139.759 298.145 139.815 298.5 139.929 298.793C140.045 299.085 140.209 299.308 140.419 299.462C140.629 299.615 140.875 299.692 141.156 299.692C141.364 299.692 141.55 299.649 141.714 299.564C141.882 299.479 142.02 299.355 142.128 299.193C142.239 299.028 142.311 298.831 142.345 298.601H144.058C144.03 299.101 143.893 299.541 143.649 299.922C143.408 300.3 143.074 300.595 142.648 300.808C142.222 301.021 141.717 301.128 141.135 301.128ZM146.865 299.116L146.87 296.939H147.134L149.23 294.455H151.314L148.498 297.744H148.067L146.865 299.116ZM145.221 301V292.273H147.036V301H145.221ZM149.311 301L147.385 298.149L148.596 296.866L151.438 301H149.311ZM158.783 291.864L155.971 302.312H154.407L157.219 291.864H158.783ZM165.563 301H162.469V292.273H165.589C166.467 292.273 167.222 292.447 167.856 292.797C168.489 293.143 168.977 293.642 169.317 294.293C169.661 294.943 169.833 295.722 169.833 296.628C169.833 297.537 169.661 298.318 169.317 298.972C168.977 299.625 168.487 300.126 167.847 300.476C167.211 300.825 166.45 301 165.563 301ZM164.315 299.419H165.487C166.032 299.419 166.491 299.322 166.863 299.129C167.238 298.933 167.519 298.631 167.707 298.222C167.897 297.81 167.992 297.278 167.992 296.628C167.992 295.983 167.897 295.456 167.707 295.047C167.519 294.638 167.239 294.337 166.867 294.143C166.495 293.95 166.036 293.854 165.491 293.854H164.315V299.419ZM171.166 301V294.455H172.926V295.597H172.994C173.113 295.19 173.314 294.884 173.595 294.676C173.876 294.466 174.2 294.361 174.566 294.361C174.657 294.361 174.755 294.366 174.86 294.378C174.966 294.389 175.058 294.405 175.137 294.425V296.036C175.052 296.01 174.934 295.987 174.784 295.967C174.633 295.947 174.495 295.938 174.37 295.938C174.103 295.938 173.865 295.996 173.654 296.112C173.447 296.226 173.282 296.385 173.16 296.589C173.041 296.794 172.981 297.03 172.981 297.297V301H171.166ZM178.729 301.128C178.067 301.128 177.494 300.987 177.011 300.706C176.531 300.422 176.161 300.027 175.899 299.521C175.638 299.013 175.507 298.423 175.507 297.753C175.507 297.077 175.638 296.486 175.899 295.98C176.161 295.472 176.531 295.077 177.011 294.795C177.494 294.511 178.067 294.369 178.729 294.369C179.391 294.369 179.962 294.511 180.442 294.795C180.925 295.077 181.297 295.472 181.558 295.98C181.82 296.486 181.95 297.077 181.95 297.753C181.95 298.423 181.82 299.013 181.558 299.521C181.297 300.027 180.925 300.422 180.442 300.706C179.962 300.987 179.391 301.128 178.729 301.128ZM178.737 299.722C179.038 299.722 179.29 299.636 179.491 299.466C179.693 299.293 179.845 299.057 179.947 298.759C180.053 298.46 180.105 298.121 180.105 297.74C180.105 297.359 180.053 297.02 179.947 296.722C179.845 296.423 179.693 296.187 179.491 296.014C179.29 295.841 179.038 295.754 178.737 295.754C178.433 295.754 178.178 295.841 177.97 296.014C177.766 296.187 177.611 296.423 177.506 296.722C177.403 297.02 177.352 297.359 177.352 297.74C177.352 298.121 177.403 298.46 177.506 298.759C177.611 299.057 177.766 299.293 177.97 299.466C178.178 299.636 178.433 299.722 178.737 299.722ZM183.131 303.455V294.455H184.92V295.554H185.001C185.081 295.378 185.196 295.199 185.347 295.017C185.5 294.832 185.699 294.679 185.943 294.557C186.19 294.432 186.497 294.369 186.864 294.369C187.341 294.369 187.781 294.494 188.185 294.744C188.588 294.991 188.911 295.365 189.152 295.865C189.393 296.362 189.514 296.986 189.514 297.736C189.514 298.466 189.396 299.082 189.161 299.585C188.928 300.085 188.609 300.464 188.206 300.723C187.805 300.979 187.357 301.107 186.859 301.107C186.507 301.107 186.207 301.048 185.96 300.932C185.716 300.815 185.516 300.669 185.359 300.493C185.203 300.314 185.084 300.134 185.001 299.952H184.946V303.455H183.131ZM184.908 297.727C184.908 298.116 184.962 298.456 185.07 298.746C185.178 299.036 185.334 299.261 185.538 299.423C185.743 299.582 185.991 299.662 186.284 299.662C186.58 299.662 186.83 299.581 187.034 299.419C187.239 299.254 187.393 299.027 187.499 298.737C187.607 298.445 187.661 298.108 187.661 297.727C187.661 297.349 187.608 297.017 187.503 296.73C187.398 296.443 187.243 296.219 187.038 296.057C186.834 295.895 186.582 295.814 186.284 295.814C185.989 295.814 185.739 295.892 185.534 296.048C185.332 296.205 185.178 296.426 185.07 296.713C184.962 297 184.908 297.338 184.908 297.727Z" fill="#C5C5C5"/>
<defs>
<filter id="filter0_d_1_2" x="7" y="112.5" width="35" height="35" filterUnits="userSpaceOnUse" color-interpolation-filters="sRGB">
<feFlood flood-opacity="0" result="BackgroundImageFix"/>
<feColorMatrix in="SourceAlpha" type="matrix" values="0 0 0 0 0 0 0 0 0 0 0 0 0 0 0 0 0 0 127 0" result="hardAlpha"/>
<feOffset dx="-2" dy="2"/>
<feGaussianBlur stdDeviation="0.5"/>
<feComposite in2="hardAlpha" operator="out"/>
<feColorMatrix type="matrix" values="0 0 0 0 0 0 0 0 0 0 0 0 0 0 0 0 0 0 0.25 0"/>
<feBlend mode="normal" in2="BackgroundImageFix" result="effect1_dropShadow_1_2"/>
<feBlend mode="normal" in="SourceGraphic" in2="effect1_dropShadow_1_2" result="shape"/>
</filter>
<filter id="filter1_d_1_2" x="49" y="112.5" width="35" height="35" filterUnits="userSpaceOnUse" color-interpolation-filters="sRGB">
<feFlood flood-opacity="0" result="BackgroundImageFix"/>
<feColorMatrix in="SourceAlpha" type="matrix" values="0 0 0 0 0 0 0 0 0 0 0 0 0 0 0 0 0 0 127 0" result="hardAlpha"/>
<feOffset dx="-2" dy="2"/>
<feGaussianBlur stdDeviation="0.5"/>
<feComposite in2="hardAlpha" operator="out"/>
<feColorMatrix type="matrix" values="0 0 0 0 0 0 0 0 0 0 0 0 0 0 0 0 0 0 0.25 0"/>
<feBlend mode="normal" in2="BackgroundImageFix" result="effect1_dropShadow_1_2"/>
<feBlend mode="normal" in="SourceGraphic" in2="effect1_dropShadow_1_2" result="shape"/>
</filter>
<filter id="filter2_d_1_2" x="7" y="154.5" width="35" height="35" filterUnits="userSpaceOnUse" color-interpolation-filters="sRGB">
<feFlood flood-opacity="0" result="BackgroundImageFix"/>
<feColorMatrix in="SourceAlpha" type="matrix" values="0 0 0 0 0 0 0 0 0 0 0 0 0 0 0 0 0 0 127 0" result="hardAlpha"/>
<feOffset dx="-2" dy="2"/>
<feGaussianBlur stdDeviation="0.5"/>
<feComposite in2="hardAlpha" operator="out"/>
<feColorMatrix type="matrix" values="0 0 0 0 0 0 0 0 0 0 0 0 0 0 0 0 0 0 0.25 0"/>
<feBlend mode="normal" in2="BackgroundImageFix" result="effect1_dropShadow_1_2"/>
<feBlend mode="normal" in="SourceGraphic" in2="effect1_dropShadow_1_2" result="shape"/>
</filter>
<filter id="filter3_d_1_2" x="49" y="154.5" width="35" height="35" filterUnits="userSpaceOnUse" color-interpolation-filters="sRGB">
<feFlood flood-opacity="0" result="BackgroundImageFix"/>
<feColorMatrix in="SourceAlpha" type="matrix" values="0 0 0 0 0 0 0 0 0 0 0 0 0 0 0 0 0 0 127 0" result="hardAlpha"/>
<feOffset dx="-2" dy="2"/>
<feGaussianBlur stdDeviation="0.5"/>
<feComposite in2="hardAlpha" operator="out"/>
<feColorMatrix type="matrix" values="0 0 0 0 0 0 0 0 0 0 0 0 0 0 0 0 0 0 0.25 0"/>
<feBlend mode="normal" in2="BackgroundImageFix" result="effect1_dropShadow_1_2"/>
<feBlend mode="normal" in="SourceGraphic" in2="effect1_dropShadow_1_2" result="shape"/>
</filter>
<filter id="filter4_d_1_2" x="7" y="196.5" width="35" height="35" filterUnits="userSpaceOnUse" color-interpolation-filters="sRGB">
<feFlood flood-opacity="0" result="BackgroundImageFix"/>
<feColorMatrix in="SourceAlpha" type="matrix" values="0 0 0 0 0 0 0 0 0 0 0 0 0 0 0 0 0 0 127 0" result="hardAlpha"/>
<feOffset dx="-2" dy="2"/>
<feGaussianBlur stdDeviation="0.5"/>
<feComposite in2="hardAlpha" operator="out"/>
<feColorMatrix type="matrix" values="0 0 0 0 0 0 0 0 0 0 0 0 0 0 0 0 0 0 0.25 0"/>
<feBlend mode="normal" in2="BackgroundImageFix" result="effect1_dropShadow_1_2"/>
<feBlend mode="normal" in="SourceGraphic" in2="effect1_dropShadow_1_2" result="shape"/>
</filter>
<filter id="filter5_d_1_2" x="49" y="196.5" width="35" height="35" filterUnits="userSpaceOnUse" color-interpolation-filters="sRGB">
<feFlood flood-opacity="0" result="BackgroundImageFix"/>
<feColorMatrix in="SourceAlpha" type="matrix" values="0 0 0 0 0 0 0 0 0 0 0 0 0 0 0 0 0 0 127 0" result="hardAlpha"/>
<feOffset dx="-2" dy="2"/>
<feGaussianBlur stdDeviation="0.5"/>
<feComposite in2="hardAlpha" operator="out"/>
<feColorMatrix type="matrix" values="0 0 0 0 0 0 0 0 0 0 0 0 0 0 0 0 0 0 0.25 0"/>
<feBlend mode="normal" in2="BackgroundImageFix" result="effect1_dropShadow_1_2"/>
<feBlend mode="normal" in="SourceGraphic" in2="effect1_dropShadow_1_2" result="shape"/>
</filter>
<filter id="filter6_d_1_2" x="7" y="238.5" width="35" height="35" filterUnits="userSpaceOnUse" color-interpolation-filters="sRGB">
<feFlood flood-opacity="0" result="BackgroundImageFix"/>
<feColorMatrix in="SourceAlpha" type="matrix" values="0 0 0 0 0 0 0 0 0 0 0 0 0 0 0 0 0 0 127 0" result="hardAlpha"/>
<feOffset dx="-2" dy="2"/>
<feGaussianBlur stdDeviation="0.5"/>
<feComposite in2="hardAlpha" operator="out"/>
<feColorMatrix type="matrix" values="0 0 0 0 0 0 0 0 0 0 0 0 0 0 0 0 0 0 0.25 0"/>
<feBlend mode="normal" in2="BackgroundImageFix" result="effect1_dropShadow_1_2"/>
<feBlend mode="normal" in="SourceGraphic" in2="effect1_dropShadow_1_2" result="shape"/>
</filter>
<filter id="filter7_d_1_2" x="49" y="238.5" width="35" height="35" filterUnits="userSpaceOnUse" color-interpolation-filters="sRGB">
<feFlood flood-opacity="0" result="BackgroundImageFix"/>
<feColorMatrix in="SourceAlpha" type="matrix" values="0 0 0 0 0 0 0 0 0 0 0 0 0 0 0 0 0 0 127 0" result="hardAlpha"/>
<feOffset dx="-2" dy="2"/>
<feGaussianBlur stdDeviation="0.5"/>
<feComposite in2="hardAlpha" operator="out"/>
<feColorMatrix type="matrix" values="0 0 0 0 0 0 0 0 0 0 0 0 0 0 0 0 0 0 0.25 0"/>
<feBlend mode="normal" in2="BackgroundImageFix" result="effect1_dropShadow_1_2"/>
<feBlend mode="normal" in="SourceGraphic" in2="effect1_dropShadow_1_2" result="shape"/>
</filter>
<filter id="filter8_d_1_2" x="7" y="280.5" width="35" height="35" filterUnits="userSpaceOnUse" color-interpolation-filters="sRGB">
<feFlood flood-opacity="0" result="BackgroundImageFix"/>
<feColorMatrix in="SourceAlpha" type="matrix" values="0 0 0 0 0 0 0 0 0 0 0 0 0 0 0 0 0 0 127 0" result="hardAlpha"/>
<feOffset dx="-2" dy="2"/>
<feGaussianBlur stdDeviation="0.5"/>
<feComposite in2="hardAlpha" operator="out"/>
<feColorMatrix type="matrix" values="0 0 0 0 0 0 0 0 0 0 0 0 0 0 0 0 0 0 0.25 0"/>
<feBlend mode="normal" in2="BackgroundImageFix" result="effect1_dropShadow_1_2"/>
<feBlend mode="normal" in="SourceGraphic" in2="effect1_dropShadow_1_2" result="shape"/>
</filter>
<filter id="filter9_d_1_2" x="49" y="280.5" width="35" height="35" filterUnits="userSpaceOnUse" color-interpolation-filters="sRGB">
<feFlood flood-opacity="0" result="BackgroundImageFix"/>
<feColorMatrix in="SourceAlpha" type="matrix" values="0 0 0 0 0 0 0 0 0 0 0 0 0 0 0 0 0 0 127 0" result="hardAlpha"/>
<feOffset dx="-2" dy="2"/>
<feGaussianBlur stdDeviation="0.5"/>
<feComposite in2="hardAlpha" operator="out"/>
<feColorMatrix type="matrix" values="0 0 0 0 0 0 0 0 0 0 0 0 0 0 0 0 0 0 0.25 0"/>
<feBlend mode="normal" in2="BackgroundImageFix" result="effect1_dropShadow_1_2"/>
<feBlend mode="normal" in="SourceGraphic" in2="effect1_dropShadow_1_2" result="shape"/>
</filter>
</defs>
</svg>
